<svg xmlns="http://www.w3.org/2000/svg" width="369" height="369" fill="none" viewBox="0 0 369 369"><path stroke="#000" stroke-width="22" d="M35.7183 98.6009L184.5 12.7017L333.282 98.6008V270.399L184.5 356.298L35.7183 270.399V98.6009Z"/><rect width="181" height="114" x="94" y="153" fill="#000"/><path fill="#000" fill-rule="evenodd" d="M184.756 61C222.756 61 253.561 91.8052 253.561 129.805L253.561 219.721H115.951V129.85L115.951 129.805C115.951 91.8052 146.756 61 184.756 61ZM228.384 129.567C228.383 129.602 228.383 129.637 228.383 129.672V186.924H140.434V129.457H140.435C140.435 105.171 160.123 85.4836 184.409 85.4836C208.696 85.4836 228.384 105.172 228.384 129.458C228.384 129.494 228.384 129.531 228.384 129.567Z" clip-rule="evenodd"/></svg>