<svg xmlns="http://www.w3.org/2000/svg" width="369" height="369" fill="none" viewBox="0 0 369 369"><rect width="62" height="49" x="15" y="55" fill="#000" rx="13"/><rect width="62" height="49" x="293" y="55" fill="#000" rx="13"/><rect width="62" height="49" x="15" y="265" fill="#000" rx="13"/><rect width="62" height="49" x="293" y="265" fill="#000" rx="13"/><rect width="62" height="49" x="15" y="195" fill="#000" rx="13"/><rect width="62" height="49" x="293" y="195" fill="#000" rx="13"/><rect width="62" height="49" x="15" y="125" fill="#000" rx="13"/><rect width="62" height="49" x="293" y="125" fill="#000" rx="13"/><rect width="167" height="118" x="101" y="160" fill="#000"/><path fill="#000" fill-rule="evenodd" d="M239.561 199.576V126.171C239.561 95.1486 215.259 70 185.281 70C155.302 70 131 95.1486 131 126.171V199.576H239.561ZM219.699 125.887C219.699 125.954 219.698 126.02 219.698 126.086V172.801H150.315V125.887H150.316C150.316 106.06 165.848 89.9878 185.007 89.9878C204.167 89.9878 219.699 106.061 219.699 125.887Z" clip-rule="evenodd"/><rect width="369" height="369" stroke="#000"/></svg>